<svg xmlns="http://www.w3.org/2000/svg" viewBox="0 0 920 320" fill="none" role="img" aria-label="Blackbox-QA architecture">
  <rect width="920" height="320" rx="12" fill="#080b13"/>
  <rect x="1" y="1" width="918" height="318" rx="11" stroke="rgba(180,196,236,.18)"/>
  <text x="460" y="36" text-anchor="middle" fill="#8b93a7" font-family="ui-monospace,monospace" font-size="11" letter-spacing="3">AGENT LOOP</text>
  <rect x="40" y="56" width="160" height="52" rx="8" stroke="#36d6c3" fill="rgba(54,214,195,.08)"/>
  <text x="120" y="88" text-anchor="middle" fill="#e9ecf5" font-family="ui-monospace,monospace" font-size="13">question</text>
  <path d="M200 82h48" stroke="#36d6c3" stroke-width="1.5" marker-end="url(#arr)"/>
  <rect x="248" y="56" width="200" height="52" rx="8" stroke="#a78bfa" fill="rgba(167,139,250,.08)"/>
  <text x="348" y="80" text-anchor="middle" fill="#e9ecf5" font-family="ui-monospace,monospace" font-size="12">tool-calling agent</text>
  <text x="348" y="96" text-anchor="middle" fill="#8b93a7" font-family="ui-monospace,monospace" font-size="10">d8 turns Ę 1 retry</text>
  <path d="M448 82h40" stroke="#36d6c3" stroke-width="1.5" marker-end="url(#arr)"/>
  <rect x="488" y="48" width="392" height="68" rx="8" stroke="rgba(180,196,236,.28)" fill="rgba(10,13,22,.6)"/>
  <text x="684" y="72" text-anchor="middle" fill="#8b93a7" font-family="ui-monospace,monospace" font-size="10" letter-spacing="2">TOOLS (one per turn)</text>
  <text x="548" y="98" fill="#e9ecf5" font-family="ui-monospace,monospace" font-size="11">hybrid_search</text>
  <text x="684" y="98" fill="#e9ecf5" font-family="ui-monospace,monospace" font-size="11">sql_query</text>
  <text x="812" y="98" fill="#e9ecf5" font-family="ui-monospace,monospace" font-size="11">fetch_report</text>
  <path d="M684 116v32" stroke="#f3b14e" stroke-width="1.5" marker-end="url(#arr-g)"/>
  <rect x="284" y="148" width="352" height="72" rx="8" stroke="#f3b14e" fill="rgba(243,177,78,.06)"/>
  <text x="460" y="176" text-anchor="middle" fill="#e9ecf5" font-family="ui-monospace,monospace" font-size="12">Postgres + pgvector</text>
  <text x="460" y="198" text-anchor="middle" fill="#8b93a7" font-family="ui-monospace,monospace" font-size="10">HNSW vectors Ę tsvector FTS Ę structured fields</text>
  <path d="M460 220v28" stroke="#36d6c3" stroke-width="1.5" marker-end="url(#arr)"/>
  <rect x="320" y="248" width="280" height="44" rx="8" stroke="#36d6c3" fill="rgba(54,214,195,.08)"/>
  <text x="460" y="276" text-anchor="middle" fill="#e9ecf5" font-family="ui-monospace,monospace" font-size="12">grounded, cited answer</text>
  <rect x="40" y="248" width="200" height="44" rx="8" stroke="rgba(180,196,236,.22)" fill="rgba(10,13,22,.5)"/>
  <text x="140" y="268" text-anchor="middle" fill="#8b93a7" font-family="ui-monospace,monospace" font-size="10">Langfuse trace</text>
  <text x="140" y="284" text-anchor="middle" fill="#8b93a7" font-family="ui-monospace,monospace" font-size="10">+ judge scores</text>
  <path d="M320 270H240" stroke="rgba(180,196,236,.35)" stroke-width="1" stroke-dasharray="4 4"/>
  <defs>
    <marker id="arr" markerWidth="8" markerHeight="8" refX="6" refY="4" orient="auto"><path d="M0,0 L8,4 L0,8 Z" fill="#36d6c3"/></marker>
    <marker id="arr-g" markerWidth="8" markerHeight="8" refX="6" refY="4" orient="auto"><path d="M0,0 L8,4 L0,8 Z" fill="#f3b14e"/></marker>
  </defs>
</svg>
